v -0.618034 -0.618034 -0.618034
v -0.618034 -0.618034 0.618034
v -0.618034 0.618034 -0.618034
v -0.618034 0.618034 0.618034
v 0.618034 -0.618034 -0.618034
v 0.618034 -0.618034 0.618034
v 0.618034 0.618034 -0.618034
v 0.618034 0.618034 0.618034
v 0.000000 -0.381966 -1.000000
v 0.000000 -0.381966 1.000000
v 0.000000 0.381966 -1.000000
v 0.000000 0.381966 1.000000
v -0.381966 -1.000000 0.000000
v -0.381966 1.000000 0.000000
v 0.381966 -1.000000 0.000000
v 0.381966 1.000000 0.000000
v -1.000000 0.000000 -0.381966
v -1.000000 0.000000 0.381966
v 1.000000 0.000000 -0.381966
v 1.000000 0.000000 0.381966
f 15 6 10
f 15 2 13
f 10 2 15
f 13 2 18
f 17 1 18
f 18 1 13
f 13 1 5
f 5 1 9
f 5 15 13
f 5 7 19
f 9 11 5
f 5 11 7
f 3 1 17
f 9 1 3
f 3 11 9
f 3 4 14
f 17 18 3
f 3 18 4
f 6 15 20
f 20 5 19
f 15 5 20
f 7 11 16
f 16 3 14
f 11 3 16
f 19 7 16
f 16 20 19
f 8 20 16
f 12 2 10
f 12 18 2
f 4 18 12
f 10 6 12
f 12 20 8
f 6 20 12
f 14 4 12
f 8 16 12
f 12 16 14
