v 0.099875 0.000000 0.995000
v -0.127236 -0.116559 0.985000
v 0.019426 0.221354 0.975000
v 0.159563 -0.208122 0.965000
v -0.292072 0.051663 0.955000
v 0.275967 0.175548 0.945000
v -0.092068 -0.342489 0.935000
v -0.175130 0.337201 0.925000
v 0.378973 -0.138400 0.915000
v -0.393227 -0.162319 0.905000
v 0.189063 0.404017 0.895000
v 0.139344 -0.444250 0.885000
v -0.418869 0.242743 0.875000
v 0.490068 0.107740 0.865000
v -0.298278 -0.424270 0.855000
v -0.068723 0.530332 0.845000
v 0.420748 -0.354607 0.835000
v -0.564650 -0.023350 0.825000
v 0.410739 0.408740 0.815000
v -0.027404 -0.592642 0.805000
v -0.388660 0.465745 0.795000
v 0.613963 -0.082608 0.785000
v -0.518751 -0.360933 0.775000
v 0.141353 0.628327 0.765000
v 0.326014 -0.568938 0.755000
v -0.635507 0.202744 0.745000
v 0.615543 0.284397 0.735000
v -0.265899 -0.635352 0.725000
v -0.236620 0.657865 0.715000
v 0.627783 -0.329945 0.705000
v -0.695261 -0.183269 0.695000
v 0.394024 0.612797 0.685000
v 0.124969 -0.727157 0.675000
v -0.590472 0.457294 0.665000
v 0.753049 0.062389 0.655000
v -0.518941 -0.560960 0.645000
v 0.003769 0.772503 0.635000
v 0.524490 -0.578174 0.625000
v -0.785162 0.072769 0.615000
v 0.634241 0.481366 0.605000
v -0.143854 -0.790747 0.595000
v -0.431961 0.686429 0.585000
v 0.789058 -0.216248 0.575000
v -0.734072 -0.376714 0.565000
v 0.289165 0.779973 0.555000
v 0.316126 -0.776556 0.545000
v -0.763456 0.361816 0.535000
v 0.813324 0.250757 0.525000
v -0.433415 -0.739545 0.515000
v -0.181214 0.843882 0.505000
v 0.708362 -0.503187 0.495000
v -0.867801 -0.108152 0.485000
v 0.570380 0.670106 0.475000
v 0.032264 -0.884723 0.465000
v -0.625048 0.634263 0.455000
v 0.894362 -0.045729 0.445000
v -0.694142 -0.573535 0.435000
v 0.125080 0.896510 0.425000
v 0.515979 -0.749360 0.415000
v -0.891033 0.205025 0.405000
v 0.799310 0.452857 0.395000
v -0.284793 -0.877877 0.385000
v -0.384705 0.843432 0.375000
v 0.857066 -0.363611 0.365000
v -0.881227 -0.312112 0.355000
v 0.440715 0.828701 0.345000
v 0.235715 -0.912257 0.335000
v -0.792961 0.515352 0.325000
v 0.936152 0.156189 0.315000
v -0.586794 -0.750098 0.305000
v -0.074245 0.952608 0.295000
v 0.700438 -0.654341 0.285000
v -0.961398 0.009380 0.275000
v 0.717328 0.644373 0.265000
v -0.093929 -0.962368 0.255000
v -0.582361 0.775133 0.245000
v 0.955440 -0.178634 0.235000
v -0.827184 -0.514920 0.225000
v 0.262723 0.940612 0.215000
v 0.442622 -0.872961 0.205000
v -0.917963 0.345426 0.195000
v 0.912005 0.366090 0.185000
v -0.425986 -0.887644 0.175000
v -0.285986 0.943921 0.165000
v 0.849881 -0.503664 0.155000
v -0.968381 -0.203012 0.145000
v 0.577746 0.804975 0.135000
v 0.117897 -0.985127 0.125000
v -0.753294 0.647552 0.115000
v 0.993977 0.031393 0.105000
v -0.712441 -0.695272 0.095000
v 0.055733 0.994821 0.085000
v 0.631404 -0.771818 0.075000
v -0.987628 0.142708 0.065000
v 0.825141 0.562244 0.055000
v -0.228757 -0.972443 0.045000
v -0.488393 0.871922 0.035000
v 0.949385 -0.313118 0.025000
v -0.911737 -0.410500 0.015000
v 0.395038 0.918651 0.005000
v 0.329251 -0.944229 -0.005000
v -0.880509 0.473792 -0.015000
v 0.969108 0.245367 -0.025000
v -0.548682 -0.835298 -0.035000
v -0.159591 0.986157 -0.045000
v 0.783424 -0.619049 -0.055000
v -0.995235 -0.072684 -0.065000
v 0.684276 0.725356 -0.075000
v -0.014581 -0.996274 -0.085000
v -0.661621 0.743796 -0.095000
v 0.989286 -0.101431 -0.105000
v -0.797096 -0.592801 -0.115000
v 0.187095 0.974356 -0.125000
v 0.519523 -0.843724 -0.135000
v -0.951648 0.270816 -0.145000
v 0.883293 0.442458 -0.155000
v -0.351859 -0.921396 -0.165000
v -0.362310 0.915482 -0.175000
v 0.883909 -0.429511 -0.185000
v -0.940043 -0.279812 -0.195000
v 0.503099 0.839563 -0.205000
v 0.195717 -0.956802 -0.215000
v -0.788800 0.571987 -0.225000
v 0.965660 0.110792 -0.235000
v -0.635588 -0.732122 -0.245000
v -0.025809 0.966597 -0.255000
v 0.670086 -0.693368 -0.265000
v -0.959665 0.058461 -0.275000
v 0.744850 0.603302 -0.285000
v -0.141257 -0.944998 -0.295000
v -0.532420 0.789623 -0.305000
v 0.922802 -0.221836 -0.315000
v -0.827339 -0.458132 -0.325000
v 0.299479 0.893357 -0.335000
v 0.381160 -0.857725 -0.345000
v -0.857015 0.373497 -0.355000
v 0.880580 0.302247 -0.365000
v -0.443243 -0.814193 -0.375000
v -0.222157 0.895780 -0.385000
v 0.765374 -0.508113 -0.395000
v -0.903276 -0.141660 -0.405000
v 0.567554 0.711096 -0.415000
v 0.061528 -0.903100 -0.425000
v -0.651955 0.621071 -0.435000
v 0.895360 -0.017474 -0.445000
v -0.668232 -0.588592 -0.455000
v 0.094592 0.880243 -0.465000
v 0.521689 -0.708671 -0.475000
v -0.858010 0.169098 -0.485000
v 0.742093 0.451966 -0.495000
v -0.240291 -0.828997 -0.505000
v -0.380167 0.768276 -0.515000
v 0.793610 -0.307504 -0.525000
v -0.787076 -0.307060 -0.535000
v 0.370117 0.752322 -0.545000
v 0.233425 -0.798428 -0.555000
v -0.705670 0.427557 -0.565000
v 0.802346 0.160049 -0.575000
v -0.479306 -0.654248 -0.585000
v -0.087715 0.798925 -0.595000
v 0.598705 -0.524907 -0.605000
v -0.788339 -0.017201 -0.615000
v 0.563968 0.539736 -0.625000
v -0.050734 -0.770844 -0.635000
v -0.478077 0.596169 -0.645000
v 0.746772 -0.115354 -0.655000
v -0.621259 -0.414503 -0.665000
v 0.175952 0.716531 -0.675000
v 0.349815 -0.639065 -0.685000
v -0.680601 0.231856 -0.695000
v 0.649494 0.284839 -0.705000
v -0.282437 -0.639534 -0.715000
v -0.220419 0.652526 -0.725000
v 0.593948 -0.327109 -0.735000
v -0.648226 -0.157410 -0.745000
v 0.365335 0.544523 -0.755000
v 0.096678 -0.636733 -0.765000
v -0.491998 0.396627 -0.775000
v 0.618261 0.039093 -0.785000
v -0.420546 -0.437168 -0.795000
v 0.014469 0.593098 -0.805000
v 0.380883 -0.436696 -0.815000
v -0.561596 0.063123 -0.825000
v 0.444714 0.324044 -0.835000
v -0.105962 -0.524163 -0.845000
v -0.267607 0.444254 -0.855000
v 0.481248 -0.142042 -0.865000
v -0.434948 -0.212591 -0.875000
v 0.170335 0.433314 -0.885000
v 0.160093 -0.416348 -0.895000
v -0.380798 0.189653 -0.905000
v 0.387792 0.111322 -0.915000
v -0.198480 -0.324007 -0.925000
v -0.067679 0.348130 -0.935000
v 0.262897 -0.194577 -0.945000
v -0.294989 -0.030932 -0.955000
v 0.173847 0.196348 -0.965000
v 0.003764 -0.222173 -0.975000
v -0.118697 0.125244 -0.985000
v 0.099626 -0.007045 -0.995000
f 192 184 179
f 163 184 176
f 184 192 197
f 200 199 197
f 197 192 200
f 18 26 39
f 47 60 39
f 39 26 47
f 136 149 128
f 157 149 136
f 58 71 50
f 87 66 74
f 79 66 87
f 87 100 79
f 79 58 66
f 92 71 79
f 71 58 79
f 121 100 87
f 137 158 150
f 179 184 171
f 171 158 179
f 171 184 163
f 163 150 171
f 171 150 158
f 181 160 168
f 145 158 137
f 137 116 124
f 124 116 103
f 124 145 137
f 124 103 90
f 90 111 124
f 124 111 132
f 132 145 124
f 194 197 199
f 194 186 181
f 189 176 184
f 184 197 189
f 181 168 189
f 189 168 176
f 189 194 181
f 197 194 189
f 173 160 181
f 181 186 173
f 173 186 165
f 191 199 196
f 191 194 199
f 186 194 191
f 31 18 39
f 86 73 107
f 86 65 73
f 123 89 110
f 110 89 76
f 89 123 102
f 126 139 118
f 2 4 1
f 6 1 9
f 9 1 4
f 26 18 13
f 48 27 35
f 14 9 22
f 6 9 14
f 22 35 14
f 14 35 27
f 14 19 6
f 27 19 14
f 37 58 50
f 50 29 37
f 37 29 16
f 53 74 66
f 100 121 113
f 113 126 92
f 92 79 113
f 113 79 100
f 142 150 163
f 147 168 160
f 147 139 126
f 160 139 147
f 96 130 109
f 179 158 166
f 158 145 166
f 187 192 179
f 179 166 187
f 187 166 174
f 172 164 151
f 172 180 185
f 185 180 193
f 185 164 172
f 185 177 164
f 109 130 122
f 152 139 160
f 160 173 152
f 152 173 165
f 149 157 170
f 28 20 15
f 132 111 98
f 52 31 39
f 73 65 52
f 39 60 52
f 60 73 52
f 23 10 18
f 18 31 23
f 15 10 23
f 196 193 188
f 193 180 188
f 188 180 167
f 159 146 167
f 159 180 172
f 167 180 159
f 172 151 159
f 141 128 149
f 84 76 63
f 50 71 63
f 63 71 84
f 63 76 55
f 107 73 94
f 94 128 107
f 60 47 68
f 68 47 55
f 55 76 68
f 68 76 89
f 110 76 97
f 97 76 84
f 84 118 97
f 126 118 105
f 105 118 84
f 92 126 105
f 105 71 92
f 84 71 105
f 3 1 6
f 2 1 3
f 26 13 34
f 55 47 34
f 34 47 26
f 43 35 22
f 58 37 45
f 66 58 45
f 32 53 45
f 45 53 66
f 129 95 116
f 129 142 121
f 150 142 129
f 129 116 137
f 137 150 129
f 103 116 82
f 116 95 82
f 82 95 74
f 74 53 61
f 61 82 74
f 176 168 155
f 163 176 155
f 155 142 163
f 168 147 155
f 83 96 75
f 75 96 109
f 65 86 78
f 200 192 195
f 192 187 195
f 143 122 130
f 130 151 143
f 143 151 164
f 135 122 143
f 174 166 153
f 132 140 153
f 153 145 132
f 153 166 145
f 135 148 127
f 127 148 140
f 110 97 131
f 131 97 118
f 131 123 110
f 131 118 139
f 139 152 131
f 178 157 165
f 178 170 157
f 165 186 178
f 186 191 178
f 7 4 2
f 7 12 4
f 2 10 7
f 7 10 15
f 15 20 7
f 20 12 7
f 17 12 25
f 22 9 17
f 17 9 4
f 4 12 17
f 119 140 132
f 132 98 119
f 119 127 140
f 119 98 85
f 44 23 31
f 44 52 65
f 31 52 44
f 183 178 191
f 170 178 183
f 183 191 196
f 196 188 183
f 83 70 104
f 167 146 154
f 146 125 133
f 133 154 146
f 141 154 133
f 42 29 50
f 50 63 42
f 42 63 55
f 55 34 42
f 128 94 115
f 136 128 115
f 115 123 136
f 115 102 123
f 89 102 81
f 81 68 89
f 102 115 81
f 81 115 94
f 60 68 81
f 81 73 60
f 81 94 73
f 6 19 11
f 11 3 6
f 16 3 11
f 8 3 16
f 21 34 13
f 13 8 21
f 29 42 21
f 21 42 34
f 16 29 21
f 21 8 16
f 85 98 77
f 77 111 90
f 77 98 111
f 95 129 108
f 87 74 108
f 74 95 108
f 108 121 87
f 108 129 121
f 69 77 90
f 90 103 69
f 103 82 69
f 69 61 48
f 82 61 69
f 40 61 53
f 40 53 32
f 40 27 48
f 48 61 40
f 32 19 40
f 40 19 27
f 134 155 147
f 134 113 121
f 121 142 134
f 142 155 134
f 126 113 134
f 134 147 126
f 83 75 62
f 49 70 62
f 62 70 83
f 88 75 109
f 67 75 88
f 109 122 88
f 169 177 182
f 182 187 174
f 182 195 187
f 200 195 198
f 198 193 196
f 198 185 193
f 198 199 200
f 196 199 198
f 135 143 156
f 169 148 156
f 156 148 135
f 156 143 164
f 156 177 169
f 164 177 156
f 161 148 169
f 169 182 161
f 161 182 174
f 140 148 161
f 174 153 161
f 161 153 140
f 114 122 135
f 135 127 114
f 123 131 144
f 144 157 136
f 136 123 144
f 165 157 144
f 144 152 165
f 144 131 152
f 23 44 36
f 49 28 36
f 36 28 15
f 15 23 36
f 138 151 130
f 138 159 151
f 146 159 138
f 138 125 146
f 117 96 83
f 83 104 117
f 130 96 117
f 117 138 130
f 117 104 125
f 125 138 117
f 70 78 91
f 91 104 70
f 125 104 91
f 167 154 175
f 175 188 167
f 175 183 188
f 141 133 120
f 107 128 120
f 128 141 120
f 120 86 107
f 24 37 16
f 16 11 24
f 32 45 24
f 24 45 37
f 24 19 32
f 24 11 19
f 2 3 5
f 3 8 5
f 5 8 13
f 5 10 2
f 18 10 5
f 5 13 18
f 38 25 46
f 38 17 25
f 85 77 64
f 43 51 64
f 77 69 56
f 43 64 56
f 56 64 77
f 35 43 56
f 48 35 56
f 56 69 48
f 41 28 49
f 49 62 41
f 20 28 41
f 195 182 190
f 190 198 195
f 190 182 177
f 177 185 190
f 185 198 190
f 85 64 72
f 72 64 51
f 101 88 122
f 122 114 101
f 57 36 44
f 57 78 70
f 57 70 49
f 49 36 57
f 65 78 57
f 57 44 65
f 112 133 125
f 125 91 112
f 112 91 78
f 112 120 133
f 162 154 141
f 162 175 154
f 162 141 149
f 149 170 162
f 170 183 162
f 183 175 162
f 30 51 43
f 30 38 51
f 17 38 30
f 30 43 22
f 22 17 30
f 20 41 33
f 46 25 33
f 33 12 20
f 25 12 33
f 85 72 106
f 106 119 85
f 127 119 106
f 46 67 59
f 59 38 46
f 51 38 59
f 59 72 51
f 80 101 114
f 72 59 80
f 80 59 67
f 67 88 80
f 88 101 80
f 99 112 78
f 120 112 99
f 99 78 86
f 86 120 99
f 54 33 41
f 54 75 67
f 54 67 46
f 46 33 54
f 54 62 75
f 54 41 62
f 93 80 114
f 72 80 93
f 93 106 72
f 93 114 127
f 127 106 93
