v 0.000000 -0.618034 -1.000000
v -0.618034 -1.000000 0.000000
v -1.000000 0.000000 -0.618034
v 0.000000 -0.618034 1.000000
v -0.618034 1.000000 0.000000
v -1.000000 0.000000 0.618034
v 0.000000 0.618034 -1.000000
v 0.618034 -1.000000 0.000000
v 1.000000 0.000000 -0.618034
v 0.000000 0.618034 1.000000
v 0.618034 1.000000 0.000000
v 1.000000 0.000000 0.618034
f 1 2 3
f 3 5 7
f 9 1 7
f 7 1 3
f 8 4 2
f 8 1 9
f 2 1 8
f 2 4 6
f 3 2 6
f 6 5 3
f 6 10 5
f 4 10 6
f 5 10 11
f 11 7 5
f 9 7 11
f 12 8 9
f 12 10 4
f 4 8 12
f 12 11 10
f 9 11 12
