v 0.099875 0.000000 0.796000
v -0.127236 -0.093247 0.788000
v 0.019426 0.177083 0.780000
v 0.159563 -0.166497 0.772000
v -0.292072 0.041331 0.764000
v 0.275967 0.140438 0.756000
v -0.092068 -0.273991 0.748000
v -0.175130 0.269761 0.740000
v 0.378973 -0.110720 0.732000
v -0.393227 -0.129855 0.724000
v 0.189063 0.323214 0.716000
v 0.139344 -0.355400 0.708000
v -0.418869 0.194194 0.700000
v 0.490068 0.086192 0.692000
v -0.298278 -0.339416 0.684000
v -0.068723 0.424266 0.676000
v 0.420748 -0.283686 0.668000
v -0.564650 -0.018680 0.660000
v 0.410739 0.326992 0.652000
v -0.027404 -0.474113 0.644000
v -0.388660 0.372596 0.636000
v 0.613963 -0.066086 0.628000
v -0.518751 -0.288747 0.620000
v 0.141353 0.502661 0.612000
v 0.326014 -0.455150 0.604000
v -0.635507 0.162195 0.596000
v 0.615543 0.227517 0.588000
v -0.265899 -0.508282 0.580000
v -0.236620 0.526292 0.572000
v 0.627783 -0.263956 0.564000
v -0.695261 -0.146615 0.556000
v 0.394024 0.490238 0.548000
v 0.124969 -0.581726 0.540000
v -0.590472 0.365836 0.532000
v 0.753049 0.049911 0.524000
v -0.518941 -0.448768 0.516000
v 0.003769 0.618002 0.508000
v 0.524490 -0.462539 0.500000
v -0.785162 0.058215 0.492000
v 0.634241 0.385093 0.484000
v -0.143854 -0.632598 0.476000
v -0.431961 0.549143 0.468000
v 0.789058 -0.172998 0.460000
v -0.734072 -0.301371 0.452000
v 0.289165 0.623979 0.444000
v 0.316126 -0.621245 0.436000
v -0.763456 0.289453 0.428000
v 0.813324 0.200605 0.420000
v -0.433415 -0.591636 0.412000
v -0.181214 0.675105 0.404000
v 0.708362 -0.402550 0.396000
v -0.867801 -0.086522 0.388000
v 0.570380 0.536085 0.380000
v 0.032264 -0.707778 0.372000
v -0.625048 0.507411 0.364000
v 0.894362 -0.036583 0.356000
v -0.694142 -0.458828 0.348000
v 0.125080 0.717208 0.340000
v 0.515979 -0.599488 0.332000
v -0.891033 0.164020 0.324000
v 0.799310 0.362285 0.316000
v -0.284793 -0.702302 0.308000
v -0.384705 0.674745 0.300000
v 0.857066 -0.290889 0.292000
v -0.881227 -0.249690 0.284000
v 0.440715 0.662961 0.276000
v 0.235715 -0.729806 0.268000
v -0.792961 0.412282 0.260000
v 0.936152 0.124951 0.252000
v -0.586794 -0.600079 0.244000
v -0.074245 0.762087 0.236000
v 0.700438 -0.523473 0.228000
v -0.961398 0.007504 0.220000
v 0.717328 0.515498 0.212000
v -0.093929 -0.769894 0.204000
v -0.582361 0.620106 0.196000
v 0.955440 -0.142907 0.188000
v -0.827184 -0.411936 0.180000
v 0.262723 0.752490 0.172000
v 0.442622 -0.698369 0.164000
v -0.917963 0.276341 0.156000
v 0.912005 0.292872 0.148000
v -0.425986 -0.710115 0.140000
v -0.285986 0.755137 0.132000
v 0.849881 -0.402931 0.124000
v -0.968381 -0.162410 0.116000
v 0.577746 0.643980 0.108000
v 0.117897 -0.788102 0.100000
v -0.753294 0.518041 0.092000
v 0.993977 0.025115 0.084000
v -0.712441 -0.556218 0.076000
v 0.055733 0.795857 0.068000
v 0.631404 -0.617455 0.060000
v -0.987628 0.114166 0.052000
v 0.825141 0.449795 0.044000
v -0.228757 -0.777954 0.036000
v -0.488393 0.697537 0.028000
v 0.949385 -0.250494 0.020000
v -0.911737 -0.328400 0.012000
v 0.395038 0.734921 0.004000
v 0.329251 -0.755383 -0.004000
v -0.880509 0.379033 -0.012000
v 0.969108 0.196294 -0.020000
v -0.548682 -0.668239 -0.028000
v -0.159591 0.788926 -0.036000
v 0.783424 -0.495239 -0.044000
v -0.995235 -0.058147 -0.052000
v 0.684276 0.580285 -0.060000
v -0.014581 -0.797019 -0.068000
v -0.661621 0.595037 -0.076000
v 0.989286 -0.081145 -0.084000
v -0.797096 -0.474241 -0.092000
v 0.187095 0.779485 -0.100000
v 0.519523 -0.674980 -0.108000
v -0.951648 0.216653 -0.116000
v 0.883293 0.353966 -0.124000
v -0.351859 -0.737117 -0.132000
v -0.362310 0.732385 -0.140000
v 0.883909 -0.343609 -0.148000
v -0.940043 -0.223849 -0.156000
v 0.503099 0.671651 -0.164000
v 0.195717 -0.765442 -0.172000
v -0.788800 0.457590 -0.180000
v 0.965660 0.088633 -0.188000
v -0.635588 -0.585697 -0.196000
v -0.025809 0.773277 -0.204000
v 0.670086 -0.554695 -0.212000
v -0.959665 0.046769 -0.220000
v 0.744850 0.482641 -0.228000
v -0.141257 -0.755998 -0.236000
v -0.532420 0.631698 -0.244000
v 0.922802 -0.177469 -0.252000
v -0.827339 -0.366506 -0.260000
v 0.299479 0.714686 -0.268000
v 0.381160 -0.686180 -0.276000
v -0.857015 0.298798 -0.284000
v 0.880580 0.241798 -0.292000
v -0.443243 -0.651355 -0.300000
v -0.222157 0.716624 -0.308000
v 0.765374 -0.406490 -0.316000
v -0.903276 -0.113328 -0.324000
v 0.567554 0.568877 -0.332000
v 0.061528 -0.722480 -0.340000
v -0.651955 0.496857 -0.348000
v 0.895360 -0.013979 -0.356000
v -0.668232 -0.470873 -0.364000
v 0.094592 0.704194 -0.372000
v 0.521689 -0.566937 -0.380000
v -0.858010 0.135279 -0.388000
v 0.742093 0.361572 -0.396000
v -0.240291 -0.663197 -0.404000
v -0.380167 0.614621 -0.412000
v 0.793610 -0.246003 -0.420000
v -0.787076 -0.245648 -0.428000
v 0.370117 0.601857 -0.436000
v 0.233425 -0.638743 -0.444000
v -0.705670 0.342046 -0.452000
v 0.802346 0.128039 -0.460000
v -0.479306 -0.523399 -0.468000
v -0.087715 0.639140 -0.476000
v 0.598705 -0.419926 -0.484000
v -0.788339 -0.013761 -0.492000
v 0.563968 0.431789 -0.500000
v -0.050734 -0.616676 -0.508000
v -0.478077 0.476935 -0.516000
v 0.746772 -0.092283 -0.524000
v -0.621259 -0.331602 -0.532000
v 0.175952 0.573224 -0.540000
v 0.349815 -0.511252 -0.548000
v -0.680601 0.185485 -0.556000
v 0.649494 0.227871 -0.564000
v -0.282437 -0.511628 -0.572000
v -0.220419 0.522021 -0.580000
v 0.593948 -0.261687 -0.588000
v -0.648226 -0.125928 -0.596000
v 0.365335 0.435618 -0.604000
v 0.096678 -0.509386 -0.612000
v -0.491998 0.317302 -0.620000
v 0.618261 0.031274 -0.628000
v -0.420546 -0.349735 -0.636000
v 0.014469 0.474479 -0.644000
v 0.380883 -0.349357 -0.652000
v -0.561596 0.050498 -0.660000
v 0.444714 0.259235 -0.668000
v -0.105962 -0.419331 -0.676000
v -0.267607 0.355403 -0.684000
v 0.481248 -0.113633 -0.692000
v -0.434948 -0.170073 -0.700000
v 0.170335 0.346651 -0.708000
v 0.160093 -0.333078 -0.716000
v -0.380798 0.151722 -0.724000
v 0.387792 0.089058 -0.732000
v -0.198480 -0.259206 -0.740000
v -0.067679 0.278504 -0.748000
v 0.262897 -0.155662 -0.756000
v -0.294989 -0.024745 -0.764000
v 0.173847 0.157078 -0.772000
v 0.003764 -0.177738 -0.780000
v -0.118697 0.100195 -0.788000
v 0.099626 -0.005636 -0.796000
f 192 184 179
f 163 184 176
f 184 192 197
f 200 199 197
f 197 192 200
f 18 26 39
f 47 60 39
f 39 26 47
f 136 149 128
f 157 149 136
f 58 71 50
f 87 66 74
f 79 66 87
f 87 100 79
f 79 58 66
f 92 71 79
f 71 58 79
f 121 100 87
f 137 158 150
f 179 184 171
f 171 158 179
f 171 184 163
f 163 150 171
f 171 150 158
f 181 160 168
f 145 158 137
f 137 116 124
f 124 116 103
f 124 145 137
f 124 103 90
f 90 111 124
f 124 111 132
f 132 145 124
f 194 197 199
f 194 186 181
f 189 176 184
f 184 197 189
f 181 168 189
f 189 168 176
f 189 194 181
f 197 194 189
f 173 160 181
f 181 186 173
f 173 186 165
f 191 199 196
f 191 194 199
f 186 194 191
f 31 18 39
f 86 73 107
f 86 65 73
f 123 89 110
f 110 89 76
f 89 123 102
f 126 139 118
f 2 4 1
f 6 1 9
f 9 1 4
f 26 18 13
f 48 27 35
f 14 9 22
f 6 9 14
f 22 35 14
f 14 35 27
f 14 19 6
f 27 19 14
f 37 58 50
f 50 29 37
f 37 29 16
f 53 74 66
f 100 121 113
f 113 126 92
f 92 79 113
f 113 79 100
f 142 150 163
f 147 168 160
f 147 139 126
f 160 139 147
f 96 130 109
f 179 158 166
f 158 145 166
f 187 192 179
f 179 166 187
f 187 166 174
f 172 164 151
f 172 180 185
f 185 180 193
f 185 164 172
f 185 177 164
f 109 130 122
f 135 122 143
f 143 122 130
f 130 151 143
f 143 151 164
f 152 139 160
f 160 173 152
f 152 173 165
f 149 157 170
f 28 20 15
f 132 111 98
f 52 31 39
f 73 65 52
f 39 60 52
f 60 73 52
f 23 10 18
f 18 31 23
f 15 10 23
f 196 193 188
f 193 180 188
f 188 180 167
f 159 146 167
f 159 180 172
f 167 180 159
f 172 151 159
f 141 128 149
f 84 76 63
f 50 71 63
f 63 71 84
f 63 76 55
f 107 73 94
f 94 128 107
f 60 47 68
f 68 47 55
f 55 76 68
f 68 76 89
f 115 123 136
f 115 102 123
f 136 128 115
f 128 94 115
f 110 76 97
f 97 76 84
f 84 118 97
f 126 118 105
f 105 118 84
f 92 126 105
f 105 71 92
f 84 71 105
f 3 1 6
f 2 1 3
f 26 13 34
f 55 47 34
f 34 47 26
f 43 35 22
f 58 37 45
f 66 58 45
f 32 53 45
f 45 53 66
f 129 95 116
f 129 142 121
f 150 142 129
f 129 116 137
f 137 150 129
f 103 116 82
f 116 95 82
f 82 95 74
f 74 53 61
f 61 82 74
f 176 168 155
f 163 176 155
f 155 142 163
f 168 147 155
f 83 96 75
f 75 96 109
f 65 86 78
f 200 192 195
f 192 187 195
f 174 166 153
f 132 140 153
f 153 145 132
f 153 166 145
f 135 148 127
f 127 148 140
f 135 143 156
f 169 148 156
f 156 148 135
f 156 143 164
f 156 177 169
f 164 177 156
f 110 97 131
f 131 97 118
f 131 123 110
f 131 118 139
f 139 152 131
f 178 157 165
f 178 170 157
f 165 186 178
f 186 191 178
f 7 4 2
f 7 12 4
f 2 10 7
f 7 10 15
f 15 20 7
f 20 12 7
f 17 12 25
f 22 9 17
f 17 9 4
f 4 12 17
f 119 140 132
f 132 98 119
f 119 127 140
f 119 98 85
f 44 23 31
f 44 52 65
f 31 52 44
f 183 178 191
f 170 178 183
f 183 191 196
f 196 188 183
f 83 70 104
f 167 146 154
f 146 125 133
f 133 154 146
f 141 154 133
f 42 29 50
f 50 63 42
f 42 63 55
f 55 34 42
f 89 102 81
f 81 68 89
f 102 115 81
f 81 115 94
f 60 68 81
f 81 73 60
f 81 94 73
f 6 19 11
f 11 3 6
f 16 3 11
f 8 3 16
f 21 34 13
f 13 8 21
f 29 42 21
f 21 42 34
f 16 29 21
f 21 8 16
f 85 98 77
f 77 111 90
f 77 98 111
f 95 129 108
f 87 74 108
f 74 95 108
f 108 121 87
f 108 129 121
f 69 77 90
f 90 103 69
f 103 82 69
f 69 61 48
f 82 61 69
f 40 61 53
f 40 53 32
f 40 27 48
f 48 61 40
f 32 19 40
f 40 19 27
f 134 155 147
f 134 113 121
f 121 142 134
f 142 155 134
f 126 113 134
f 134 147 126
f 83 75 62
f 49 70 62
f 62 70 83
f 88 75 109
f 67 75 88
f 109 122 88
f 169 177 182
f 182 187 174
f 182 195 187
f 200 195 198
f 198 193 196
f 198 185 193
f 198 199 200
f 196 199 198
f 161 148 169
f 169 182 161
f 161 182 174
f 140 148 161
f 174 153 161
f 161 153 140
f 114 122 135
f 135 127 114
f 123 131 144
f 144 157 136
f 136 123 144
f 165 157 144
f 144 152 165
f 144 131 152
f 23 44 36
f 49 28 36
f 36 28 15
f 15 23 36
f 138 151 130
f 138 159 151
f 146 159 138
f 138 125 146
f 117 96 83
f 83 104 117
f 130 96 117
f 117 138 130
f 117 104 125
f 125 138 117
f 70 78 91
f 91 104 70
f 125 104 91
f 167 154 175
f 175 188 167
f 175 183 188
f 141 133 120
f 107 128 120
f 128 141 120
f 120 86 107
f 24 37 16
f 16 11 24
f 32 45 24
f 24 45 37
f 24 19 32
f 24 11 19
f 2 3 5
f 3 8 5
f 5 8 13
f 5 10 2
f 18 10 5
f 5 13 18
f 38 25 46
f 38 17 25
f 85 77 64
f 43 51 64
f 77 69 56
f 43 64 56
f 56 64 77
f 35 43 56
f 48 35 56
f 56 69 48
f 41 28 49
f 49 62 41
f 20 28 41
f 195 182 190
f 190 198 195
f 190 182 177
f 177 185 190
f 185 198 190
f 85 64 72
f 72 64 51
f 101 88 122
f 122 114 101
f 57 36 44
f 57 78 70
f 57 70 49
f 49 36 57
f 65 78 57
f 57 44 65
f 112 133 125
f 125 91 112
f 112 91 78
f 112 120 133
f 162 154 141
f 162 175 154
f 162 141 149
f 149 170 162
f 170 183 162
f 183 175 162
f 30 51 43
f 30 38 51
f 17 38 30
f 30 43 22
f 22 17 30
f 20 41 33
f 46 25 33
f 33 12 20
f 25 12 33
f 85 72 106
f 106 119 85
f 127 119 106
f 46 67 59
f 59 38 46
f 51 38 59
f 59 72 51
f 80 101 114
f 72 59 80
f 80 59 67
f 67 88 80
f 88 101 80
f 99 112 78
f 120 112 99
f 99 78 86
f 86 120 99
f 54 33 41
f 54 75 67
f 54 67 46
f 46 33 54
f 54 62 75
f 54 41 62
f 93 80 114
f 72 80 93
f 93 106 72
f 93 114 127
f 127 106 93
