v 1.000000 0.000000 1.000000
v 0.809017 0.587785 1.000000
v 0.309017 0.951057 1.000000
v -0.309017 0.951057 1.000000
v -0.809017 0.587785 1.000000
v -1.000000 0.000000 1.000000
v -0.809017 -0.587785 1.000000
v -0.309017 -0.951057 1.000000
v 0.309017 -0.951057 1.000000
v 0.809017 -0.587785 1.000000
v 1.000000 0.000000 -1.000000
v 0.809017 0.587785 -1.000000
v 0.309017 0.951057 -1.000000
v -0.309017 0.951057 -1.000000
v -0.809017 0.587785 -1.000000
v -1.000000 0.000000 -1.000000
v -0.809017 -0.587785 -1.000000
v -0.309017 -0.951057 -1.000000
v 0.309017 -0.951057 -1.000000
v 0.809017 -0.587785 -1.000000
f 1 10 20
f 20 11 1
f 20 10 9
f 9 19 20
f 8 7 18
f 18 7 17
f 9 8 18
f 18 19 9
f 12 2 1
f 1 11 12
f 16 7 6
f 17 7 16
f 6 7 5
f 5 10 1
f 1 2 5
f 9 10 5
f 5 8 9
f 5 2 3
f 5 7 8
f 3 4 5
f 15 16 5
f 5 16 6
f 15 5 14
f 14 5 4
f 11 20 13
f 13 18 17
f 13 12 11
f 13 20 19
f 19 18 13
f 17 16 13
f 13 16 15
f 15 14 13
f 3 2 13
f 2 12 13
f 13 4 3
f 13 14 4
